{
    "asset" : {
        "generator" : "Khronos glTF Blender I/O v1.7.33",
        "version" : "2.0"
    },
    "scene" : 0,
    "scenes" : [
        {
            "name" : "Scene",
            "nodes" : [
                0
            ]
        }
    ],
    "nodes" : [
        {
            "mesh" : 0,
            "name" : "Cube",
            "translation" : [
                0,
                1.045549988746643,
                0
            ]
        }
    ],
    "meshes" : [
        {
            "name" : "Cube",
            "primitives" : [
                {
                    "attributes" : {
                        "POSITION" : 0,
                        "NORMAL" : 1
                    },
                    "indices" : 2
                }
            ]
        }
    ],
    "accessors" : [
        {
            "bufferView" : 0,
            "componentType" : 5126,
            "count" : 67584,
            "max" : [
                1.6765730381011963,
                5.945522308349609,
                2.216468572616577
            ],
            "min" : [
                -1.5012083053588867,
                -0.9787423014640808,
                -1.1748991012573242
            ],
            "type" : "VEC3"
        },
        {
            "bufferView" : 1,
            "componentType" : 5126,
            "count" : 67584,
            "type" : "VEC3"
        },
        {
            "bufferView" : 2,
            "componentType" : 5125,
            "count" : 101376,
            "type" : "SCALAR"
        }
    ],
    "bufferViews" : [
        {
            "buffer" : 0,
            "byteLength" : 811008,
            "byteOffset" : 0
        },
        {
            "buffer" : 0,
            "byteLength" : 811008,
            "byteOffset" : 811008
        },
        {
            "buffer" : 0,
            "byteLength" : 405504,
            "byteOffset" : 1622016
        }
    ],
    "buffers" : [
        {
            "byteLength" : 2027520,
            "uri" : "data:application/octet-stream;base64,"
        }
    ]
}
